<?xml version="1.0" encoding="utf-8"?>
<!-- Generator: Adobe Illustrator 28.1.0, SVG Export Plug-In . SVG Version: 6.00 Build 0)  -->
<svg version="1.1" id="Layer_1" xmlns="http://www.w3.org/2000/svg" xmlns:xlink="http://www.w3.org/1999/xlink" x="0px" y="0px"
	 viewBox="0 0 313.36 86.98" style="enable-background:new 0 0 313.36 86.98;" xml:space="preserve" width="100%" height="100%">
<style type="text/css">
	.st0{fill:#F90036;}
</style>
<g>
	<g>
		<path d="M106.38,3.63h-2.81l-9.01,19.89h2.93l2.18-4.97h10.57l2.18,4.97h2.98L106.38,3.63z M100.67,16.27l4.29-9.76l4.29,9.76
			H100.67z"/>
		<polygon points="122.35,15.47 132.32,15.47 132.32,13.03 122.35,13.03 122.35,6.1 133.54,6.1 133.54,3.63 119.51,3.63 
			119.51,23.51 122.35,23.51 		"/>
		<path d="M141.53,17.46h4.92c0.44,0,0.86-0.02,1.26-0.05l4.28,6.1h3.1l-4.73-6.67c0.18-0.07,0.38-0.13,0.55-0.2
			c1.23-0.55,2.18-1.34,2.84-2.37c0.66-1.03,0.99-2.27,0.99-3.71c0-1.44-0.33-2.68-0.99-3.72c-0.66-1.04-1.61-1.84-2.84-2.39
			c-1.23-0.55-2.72-0.82-4.46-0.82h-7.76v19.89h2.84V17.46z M150.49,7.26c0.94,0.78,1.41,1.88,1.41,3.3s-0.47,2.52-1.41,3.31
			c-0.94,0.79-2.32,1.18-4.13,1.18h-4.83V6.1h4.83C148.17,6.1,149.55,6.49,150.49,7.26z"/>
		<rect x="160.48" y="3.63" width="2.84" height="19.89"/>
		<path d="M171.8,20.86c0.94,0.92,2.05,1.63,3.32,2.13s2.67,0.75,4.19,0.75c1.55,0,2.98-0.26,4.28-0.8c1.3-0.53,2.4-1.31,3.31-2.33
			l-1.85-1.79c-0.76,0.81-1.61,1.42-2.56,1.8c-0.95,0.39-1.96,0.58-3.04,0.58c-1.12,0-2.16-0.19-3.11-0.57
			c-0.96-0.38-1.79-0.91-2.49-1.59c-0.7-0.68-1.25-1.49-1.63-2.43c-0.39-0.94-0.58-1.96-0.58-3.05c0-1.1,0.19-2.12,0.58-3.05
			c0.39-0.94,0.93-1.75,1.63-2.43c0.7-0.68,1.53-1.21,2.49-1.59s1.99-0.57,3.11-0.57c1.08,0,2.09,0.19,3.04,0.58
			c0.95,0.39,1.8,0.98,2.56,1.78l1.85-1.79c-0.91-1.02-2.01-1.79-3.31-2.32c-1.3-0.52-2.71-0.78-4.25-0.78
			c-1.52,0-2.91,0.25-4.19,0.75c-1.28,0.5-2.39,1.21-3.34,2.13c-0.95,0.92-1.69,1.99-2.22,3.22c-0.53,1.23-0.8,2.59-0.8,4.06
			c0,1.48,0.27,2.83,0.8,4.06C170.13,18.87,170.86,19.94,171.8,20.86z"/>
		<path d="M193.71,18.54h10.57l2.18,4.97h2.98l-9.04-19.89h-2.81l-9.01,19.89h2.93L193.71,18.54z M199,6.51l4.29,9.76h-8.58
			L199,6.51z"/>
		<polygon points="230.65,3.63 227.81,3.63 227.81,18.45 215.87,3.63 213.55,3.63 213.55,23.51 216.39,23.51 216.39,8.7 
			228.32,23.51 230.65,23.51 		"/>
		<polygon points="104.34,53.44 104.34,36.02 111.16,36.02 111.16,33.55 94.71,33.55 94.71,36.02 101.52,36.02 101.52,53.44 		"/>
		<polygon points="129.42,36.02 129.42,33.55 115.39,33.55 115.39,53.44 129.82,53.44 129.82,50.96 118.23,50.96 118.23,44.54 
			128.2,44.54 128.2,42.13 118.23,42.13 118.23,36.02 		"/>
		<path d="M148.7,52.87c1.3-0.53,2.4-1.31,3.31-2.33l-1.85-1.79c-0.76,0.81-1.61,1.42-2.56,1.8c-0.95,0.39-1.96,0.58-3.04,0.58
			c-1.12,0-2.15-0.19-3.11-0.57c-0.96-0.38-1.79-0.91-2.49-1.59c-0.7-0.68-1.25-1.49-1.63-2.43c-0.39-0.94-0.58-1.95-0.58-3.05
			c0-1.1,0.19-2.12,0.58-3.05c0.39-0.94,0.93-1.75,1.63-2.43c0.7-0.68,1.53-1.21,2.49-1.59c0.96-0.38,1.99-0.57,3.11-0.57
			c1.08,0,2.09,0.19,3.04,0.58s1.8,0.98,2.56,1.78l1.85-1.79c-0.91-1.02-2.01-1.79-3.31-2.32c-1.3-0.52-2.71-0.78-4.25-0.78
			c-1.52,0-2.91,0.25-4.19,0.75c-1.28,0.5-2.39,1.21-3.34,2.13c-0.95,0.92-1.69,1.99-2.22,3.22c-0.53,1.23-0.79,2.59-0.79,4.06
			c0,1.48,0.26,2.83,0.79,4.06c0.53,1.23,1.26,2.31,2.2,3.22c0.94,0.92,2.05,1.63,3.32,2.13s2.67,0.75,4.19,0.75
			C145.98,53.66,147.4,53.4,148.7,52.87z"/>
		<polygon points="171.47,44.57 171.47,53.44 174.31,53.44 174.31,33.55 171.47,33.55 171.47,42.1 160.05,42.1 160.05,33.55 
			157.21,33.55 157.21,53.44 160.05,53.44 160.05,44.57 		"/>
		<polygon points="196.19,53.44 198.52,53.44 198.52,33.55 195.68,33.55 195.68,48.37 183.74,33.55 181.41,33.55 181.41,53.44 
			184.26,53.44 184.26,38.62 		"/>
		<path d="M222.14,36.2c-0.96-0.92-2.07-1.63-3.35-2.13c-1.28-0.5-2.68-0.75-4.19-0.75c-1.53,0-2.95,0.26-4.23,0.77
			c-1.29,0.51-2.41,1.23-3.35,2.15c-0.95,0.92-1.69,1.99-2.22,3.22c-0.53,1.23-0.79,2.58-0.79,4.03c0,1.46,0.26,2.8,0.79,4.03
			c0.53,1.23,1.27,2.31,2.22,3.22c0.95,0.92,2.07,1.63,3.37,2.14c1.3,0.51,2.7,0.77,4.22,0.77c1.51,0,2.91-0.25,4.19-0.75
			s2.4-1.21,3.35-2.13c0.96-0.92,1.7-1.99,2.22-3.22c0.52-1.23,0.78-2.58,0.78-4.06c0-1.48-0.26-2.83-0.78-4.06
			C223.84,38.2,223.1,37.12,222.14,36.2z M221.71,46.53c-0.39,0.93-0.93,1.74-1.62,2.43s-1.51,1.23-2.44,1.61s-1.96,0.57-3.05,0.57
			c-1.12,0-2.14-0.19-3.08-0.57s-1.76-0.91-2.46-1.61c-0.7-0.69-1.25-1.5-1.63-2.43c-0.39-0.93-0.58-1.94-0.58-3.04
			c0-1.1,0.19-2.11,0.58-3.04c0.39-0.93,0.93-1.74,1.63-2.43c0.7-0.69,1.52-1.23,2.46-1.6s1.96-0.57,3.08-0.57
			c1.1,0,2.12,0.19,3.05,0.57s1.75,0.91,2.44,1.6s1.23,1.5,1.62,2.43c0.39,0.93,0.58,1.94,0.58,3.04
			C222.3,44.59,222.1,45.6,221.71,46.53z"/>
		<polygon points="233.46,33.55 230.62,33.55 230.62,53.44 244.23,53.44 244.23,50.96 233.46,50.96 		"/>
		<path d="M264.78,36.2c-0.96-0.92-2.07-1.63-3.35-2.13c-1.28-0.5-2.68-0.75-4.19-0.75c-1.53,0-2.95,0.26-4.23,0.77
			c-1.29,0.51-2.41,1.23-3.35,2.15c-0.95,0.92-1.69,1.99-2.22,3.22c-0.53,1.23-0.8,2.58-0.8,4.03c0,1.46,0.27,2.8,0.8,4.03
			c0.53,1.23,1.27,2.31,2.22,3.22c0.95,0.92,2.07,1.63,3.37,2.14c1.3,0.51,2.7,0.77,4.22,0.77c1.51,0,2.91-0.25,4.19-0.75
			c1.28-0.5,2.4-1.21,3.35-2.13c0.96-0.92,1.69-1.99,2.22-3.22c0.52-1.23,0.78-2.58,0.78-4.06c0-1.48-0.26-2.83-0.78-4.06
			C266.48,38.2,265.74,37.12,264.78,36.2z M264.36,46.53c-0.39,0.93-0.93,1.74-1.62,2.43s-1.51,1.23-2.44,1.61s-1.96,0.57-3.05,0.57
			c-1.12,0-2.15-0.19-3.08-0.57s-1.76-0.91-2.46-1.61c-0.7-0.69-1.25-1.5-1.63-2.43c-0.39-0.93-0.58-1.94-0.58-3.04
			c0-1.1,0.19-2.11,0.58-3.04c0.39-0.93,0.93-1.74,1.63-2.43c0.7-0.69,1.52-1.23,2.46-1.6s1.96-0.57,3.08-0.57
			c1.1,0,2.12,0.19,3.05,0.57s1.75,0.91,2.44,1.6s1.23,1.5,1.62,2.43c0.39,0.93,0.58,1.94,0.58,3.04
			C264.94,44.59,264.75,45.6,264.36,46.53z"/>
		<path d="M276.72,38.01c0.71-0.68,1.55-1.21,2.53-1.59s2.03-0.57,3.17-0.57c1.12,0,2.15,0.18,3.11,0.55
			c0.96,0.37,1.84,0.95,2.66,1.75l1.76-1.76c-0.91-1.02-2.02-1.79-3.32-2.3c-1.31-0.51-2.75-0.77-4.32-0.77
			c-1.55,0-2.97,0.25-4.26,0.75c-1.29,0.5-2.41,1.21-3.37,2.13c-0.96,0.92-1.7,1.99-2.23,3.22c-0.53,1.23-0.8,2.59-0.8,4.06
			c0,1.48,0.27,2.83,0.8,4.06c0.53,1.23,1.27,2.31,2.22,3.22c0.95,0.92,2.06,1.63,3.35,2.13s2.7,0.75,4.23,0.75
			c1.4,0,2.76-0.21,4.08-0.64c1.32-0.43,2.47-1.06,3.45-1.89v-7.76h-2.73v6.46c-0.51,0.34-1.05,0.61-1.61,0.8
			c-0.98,0.33-1.99,0.5-3.05,0.5c-1.14,0-2.19-0.19-3.15-0.57s-1.8-0.91-2.51-1.61s-1.26-1.51-1.65-2.44
			c-0.39-0.94-0.58-1.95-0.58-3.03c0-1.1,0.19-2.12,0.58-3.05C275.46,39.5,276.01,38.69,276.72,38.01z"/>
		<polygon points="311.85,33.55 309.03,33.55 302.64,44.04 296.28,33.55 293.24,33.55 301.14,46.51 301.14,53.44 303.95,53.44 
			303.95,46.55 		"/>
		<polygon points="97.58,83.36 100.42,83.36 100.42,75.32 110.39,75.32 110.39,72.87 100.42,72.87 100.42,65.94 111.61,65.94 
			111.61,63.47 97.58,63.47 		"/>
		<path d="M133.05,66.13c-0.96-0.92-2.07-1.63-3.35-2.13c-1.28-0.5-2.68-0.75-4.19-0.75c-1.53,0-2.95,0.26-4.23,0.77
			c-1.29,0.51-2.41,1.23-3.35,2.15s-1.69,1.99-2.22,3.22s-0.8,2.58-0.8,4.03c0,1.46,0.27,2.8,0.8,4.03
			c0.53,1.23,1.27,2.31,2.22,3.22c0.95,0.92,2.07,1.63,3.37,2.14c1.3,0.51,2.7,0.77,4.22,0.77c1.51,0,2.91-0.25,4.19-0.75
			c1.28-0.5,2.4-1.21,3.35-2.13c0.96-0.92,1.69-1.99,2.22-3.22c0.52-1.23,0.78-2.58,0.78-4.06s-0.26-2.83-0.78-4.06
			C134.74,68.12,134,67.04,133.05,66.13z M132.62,76.45c-0.39,0.93-0.93,1.74-1.62,2.43s-1.51,1.23-2.44,1.61
			c-0.94,0.38-1.96,0.57-3.05,0.57c-1.12,0-2.15-0.19-3.08-0.57s-1.76-0.91-2.46-1.61c-0.7-0.69-1.25-1.5-1.63-2.43
			c-0.39-0.93-0.58-1.94-0.58-3.04s0.19-2.11,0.58-3.04c0.39-0.93,0.93-1.74,1.63-2.43c0.7-0.69,1.52-1.23,2.46-1.61
			s1.96-0.57,3.08-0.57c1.1,0,2.12,0.19,3.05,0.57c0.94,0.38,1.75,0.91,2.44,1.61s1.23,1.5,1.62,2.43c0.39,0.93,0.58,1.94,0.58,3.04
			S133.01,75.53,132.62,76.45z"/>
		<path d="M153.74,76.48c1.23-0.55,2.18-1.34,2.84-2.37s0.99-2.27,0.99-3.71c0-1.44-0.33-2.68-0.99-3.72
			c-0.66-1.04-1.61-1.84-2.84-2.39c-1.23-0.55-2.72-0.82-4.46-0.82h-7.76v19.89h2.84v-6.05h4.92c0.44,0,0.86-0.02,1.26-0.05
			l4.28,6.1h3.1l-4.73-6.67C153.38,76.62,153.57,76.56,153.74,76.48z M149.2,74.89h-4.83v-8.95h4.83c1.82,0,3.2,0.39,4.13,1.17
			s1.41,1.88,1.41,3.29c0,1.42-0.47,2.52-1.41,3.31C152.39,74.5,151.02,74.89,149.2,74.89z"/>
		<path d="M177.21,74.66c0,2.22-0.49,3.83-1.46,4.86c-0.98,1.02-2.36,1.53-4.16,1.53c-1.78,0-3.16-0.51-4.13-1.53
			c-0.98-1.02-1.46-2.64-1.46-4.86V63.47h-2.84v11.31c0,2.88,0.75,5.07,2.25,6.56c1.5,1.5,3.55,2.24,6.17,2.24
			c2.63,0,4.69-0.75,6.18-2.24s2.23-3.68,2.23-6.56V63.47h-2.76V74.66z"/>
		<polygon points="205.73,63.47 197.55,77.44 189.25,63.47 186.93,63.47 186.93,83.36 189.65,83.36 189.65,68.95 196.84,80.94 
			198.15,80.94 205.34,68.85 205.36,83.36 208.09,83.36 208.06,63.47 		"/>
	</g>
	<g>
		<polygon class="st0" points="65.05,63.97 65.05,72.58 68.59,73.23 72.34,62.04 70.97,57.79 		"/>
		<path class="st0" d="M73.13,33.36l-7.42,1.34l0,0L54,15.4v0l1.28-4.35l-3.2-0.42L41.5,9.23l-1.89,1.83l-8.97-2.64L28,7.65
			l2.12-4.04L12.98,5.73L1.51,22.04v0v0l4.98,9.48l4.5,8.56v0l0,0l12.6-1.71l5.98,2.84l-0.31,6.39l5.45,10.19l-3.02,6.05l6.85,18.83
			l7.27,0.65l8.7-10.54l1.34-5.65l6.31-5.75l-1.97-9.57L73.13,33.36z M11.55,36.87L3.66,21.85l23.8-15.34L11.55,36.87z M29.11,10.07
			l1.02,0.3l0-0.01l8.91,2.63l1.12,0.33l0.84-0.81l1.2-1.16l10.5,1.38l-1.03,3.68L30.46,38.82L29.11,10.07z M39.1,78.39l-5.25-14.42
			l2.64-5.28l0.46-0.92l-0.49-0.91l-5.19-9.7l0.21-4.25l37.22-6.71L39.1,78.39z"/>
	</g>
</g>
</svg>
